<svg xmlns="http://www.w3.org/2000/svg" xmlns:xlink="http://www.w3.org/1999/xlink" viewBox="0 0 793.40855 739.83849"><defs><linearGradient id="Dégradé_sans_nom_7" x1="267.50889" y1="194.7482" x2="632.07302" y2="479.32771" gradientUnits="userSpaceOnUse"><stop offset="0" stop-color="#9532ad"/><stop offset="1" stop-color="#c6ebfb"/></linearGradient><linearGradient id="Dégradé_sans_nom_7-2" x1="161.02435" y1="394.06509" x2="507.15477" y2="394.06509" xlink:href="#Dégradé_sans_nom_7"/><linearGradient id="Dégradé_sans_nom_49" x1="181.03448" y1="363.91617" x2="25.37679" y2="339.52369" gradientUnits="userSpaceOnUse"><stop offset="0" stop-color="#793c87"/><stop offset="1" stop-color="#110f1f"/></linearGradient><linearGradient id="Dégradé_sans_nom_53" x1="17.63612" y1="557.84544" x2="195.11909" y2="557.84544" gradientUnits="userSpaceOnUse"><stop offset="0" stop-color="#110f1f"/><stop offset="1" stop-color="#793c87"/></linearGradient><linearGradient id="Dégradé_sans_nom_8" x1="373.01872" y1="180.23921" x2="259.2874" y2="42.90759" gradientTransform="matrix(0.99919, -0.04019, 0.04019, 0.99919, -4.70477, 12.92458)" gradientUnits="userSpaceOnUse"><stop offset="0" stop-color="#9532ad"/><stop offset="1" stop-color="#100e28"/></linearGradient><linearGradient id="Dégradé_sans_nom_31" x1="675.30249" y1="222.52575" x2="699.91554" y2="441.90448" gradientUnits="userSpaceOnUse"><stop offset="0" stop-color="#9532ad"/><stop offset="0.53971" stop-color="#ac84d8"/><stop offset="1" stop-color="#bdc4e5"/></linearGradient><linearGradient id="Dégradé_sans_nom_57" x1="268.63597" y1="661.31644" x2="53.14319" y2="699.50605" gradientUnits="userSpaceOnUse"><stop offset="0" stop-color="#793c87"/><stop offset="0.17012" stop-color="#653473"/><stop offset="0.73214" stop-color="#291937"/><stop offset="1" stop-color="#110f1f"/></linearGradient><linearGradient id="Dégradé_sans_nom_55" x1="497.37999" y1="189.15373" x2="398.59085" y2="63.86307" gradientUnits="userSpaceOnUse"><stop offset="0" stop-color="#8f30a7"/><stop offset="1" stop-color="#100e28"/></linearGradient><linearGradient id="Dégradé_sans_nom_66" x1="504.22674" y1="515.93789" x2="727.20665" y2="708.32272" gradientUnits="userSpaceOnUse"><stop offset="0" stop-color="#b19bd9"/><stop offset="0.41704" stop-color="#9ba7df"/><stop offset="1" stop-color="#75bbea"/></linearGradient><linearGradient id="Dégradé_sans_nom_41" x1="77.23522" y1="630.21014" x2="480.04111" y2="598.6874" gradientUnits="userSpaceOnUse"><stop offset="0" stop-color="#451951"/><stop offset="0.52538" stop-color="#9942b4"/><stop offset="1" stop-color="#c6ebfb"/></linearGradient></defs><title>alice_logo3-2</title><g id="Calque_10" data-name="Calque 10"><path d="M317.82689,377.12644c1.069.725,2.132,1.46282,3.20614,2.17661,62.47162,41.51332,129.47136,61.11161,185.59562,54.6235a175.14863,175.14863,0,0,1,137.08647-11.57942c-8.92161-41.94769-21.99329-74.82509-39.89625-99.98387l-.048.034c-.67784-.95676-1.33288-1.8997-1.99514-2.84706a148.48965,148.48965,0,0,0-35.42408-34.351c-37.61733-25.77619-83.95615-31.6295-133.01528-37.82677-53.87425-6.80508-109.58244-13.84186-158.19711-48.09485-26.41067-18.60838-47.96706-43.215-65.90058-75.22557a363.03515,363.03515,0,0,1-27.43535-63.31821C175.1243,183.7245,227.18248,309.417,317.82689,377.12644Z" style="fill:url(#Dégradé_sans_nom_7)"/><path d="M232.21408,505.82607c7.476,6.0484,14.89046,12.426,22.41114,18.89751,41.7235,35.90389,84.78769,72.94917,158.96561,73.045a175.12565,175.12565,0,0,1,58.75075-139.99645c-52.51706-2.9222-110.09407-23.46645-164.03808-59.313-1.25533-.83417-2.4989-1.69356-3.74751-2.54229l-.00547.00735c-.045-.03341-.089-.06849-.13394-.10195C232.7571,347.07267,172.27877,274.5335,133.07977,190.3616,109.87747,318.90448,146.08426,435.45449,232.21408,505.82607Z" style="fill:url(#Dégradé_sans_nom_7-2)"/><path d="M116.91454,368.09631q-3.576-12.57263-6.21183-25.59232C63.86072,325.748,24.87191,289.24957,0,238.73314c4.0903,55.13514,22.00218,106.2368,51.49041,145.935,28.49553,38.36262,65.6647,63.59257,106.0669,72.38285A318.938,318.938,0,0,1,116.91454,368.09631Z" style="fill:url(#Dégradé_sans_nom_49)"/><path d="M169.86105,578.10288c9.82-1.91112,22.816-5.75309,25.258-6.54206-27.497-32.32451-43.8025-46.18391-107.73649-33.42125-23.60464,4.712-49.949.34175-69.74648-2.92182C45.922,561.12782,91.89115,593.96379,169.86105,578.10288Z" style="fill:url(#Dégradé_sans_nom_53)"/><path d="M308.60311,154.14687c4.54541,18.25221,15.70426,43.79822,52.31455,55.78717,20.331,5.913,31.4277,7.41332,41.00911,7.028-1.89322-38.09439-16.27518-79.61076-39.80962-114.94288-23.511-35.2969-53.11855-60.281-81.23212-68.54659-25.12942-7.38824-46.6552-.88885-64.13235,19.30817a51.58,51.58,0,0,1,27.27219,3.349c26.02412,10.56163,47.74143,42.1566,62.805,91.36944C307.46207,149.56407,308.01638,151.79006,308.60311,154.14687Z" style="fill:url(#Dégradé_sans_nom_8)"/><path d="M720.82723,263.85945c-29.85322-31.20857-60.7231-63.47917-75.60434-106.93793l-1.24135-3.62859c-18.51465-54.11516-27.0119-78.9283-69.33994-102.3096,23.79736,37.24236,15.69908,63.0448,7.22057,90.03153-6.49708,20.68133-13.48871,42.9538-5.91725,75.55345.41281,1.5948.81932,3.20234,1.21367,4.83466,6.21914,23.17259,19.69664,51.44766,45.37941,87.69756l-.0401.0284c20.48466,28.93691,36.72688,68.71476,46.76866,123.99051a176.45115,176.45115,0,0,1,79.72748,84.8055C834.02391,382.21485,781.35709,327.13715,720.82723,263.85945Z" style="fill:url(#Dégradé_sans_nom_31)"/><path d="M163.71,642.25665c-1.60613.5613-3.25806,1.159-4.95341,1.77176-12.06119,4.36155-27.07186,9.78953-43.86764,8.96747a66.464,66.464,0,0,1-27.61275-7.41455c33.574,40.47827,62.26225,60.76246,95.6081,67.65423,30.95633,6.39586,68.54842,2.05282,123.2425-14.55183-2.69429-2.85862-13.45822-13.807-19.92559-19.53006C224.64527,624.68167,174.08785,638.63176,163.71,642.25665Z" style="fill:url(#Dégradé_sans_nom_57)"/><path d="M475.28642,229.90988c29.538,4.68241,58.509,11.46659,84.95251,25.01437-1.41972-9.51027-3.13076-18.4105-5.10268-26.7598q-1.1191-4.04286-1.98535-7.91141c-16.7267-62.68-48.69836-93.06019-79.80977-122.62282-18.89075-17.94986-36.73338-34.90446-50.67527-58.11159A161.6799,161.6799,0,0,1,405.62187,0c-11.23071,53.14835-1.37934,101.13551,10.455,134.62326C433.80688,184.79161,461.43885,219.28631,475.28642,229.90988Z" style="fill:url(#Dégradé_sans_nom_55)"/><circle cx="588.67514" cy="588.79913" r="147.30957" style="fill:url(#Dégradé_sans_nom_66)"/><path d="M416.29346,620.74715q-7.85.07794-15.31049-.31161c-75.092-4.04147-120.649-43.24667-161.35983-78.27817-27.18257-23.39115-52.858-45.48458-83.50558-52.38479-26.30143-5.9206-45.43517,8.03387-79.69,25.452,120.27394-17.43878,127.97736,59.19716,201.8821,136.5832,60.21857,63.05519,107.57818,112.99635,201.88209,74.62077A175.80482,175.80482,0,0,1,416.29346,620.74715Z" style="fill:url(#Dégradé_sans_nom_41)"/></g></svg>